<?xml version="1.0" encoding="utf-8" standalone="no"?>
<!DOCTYPE svg PUBLIC "-//W3C//DTD SVG 1.1//EN"
  "http://www.w3.org/Graphics/SVG/1.1/DTD/svg11.dtd">
<!-- Created with matplotlib (https://matplotlib.org/) -->
<svg height="288pt" version="1.1" viewBox="0 0 432 288" width="432pt" xmlns="http://www.w3.org/2000/svg" xmlns:xlink="http://www.w3.org/1999/xlink">
 <defs>
  <style type="text/css">
*{stroke-linecap:butt;stroke-linejoin:round;}
  </style>
 </defs>
 <g id="figure_1">
  <g id="patch_1">
   <path d="M 0 288 
L 432 288 
L 432 0 
L 0 0 
z
" style="fill:#ffffff;"/>
  </g>
  <g id="axes_1">
   <g id="patch_2">
    <path d="M 112.68 252 
L 330.12 252 
L 330.12 34.56 
L 112.68 34.56 
z
" style="fill:#ffffff;"/>
   </g>
   <g id="PathCollection_1">
    <defs>
     <path d="M 0 19.364917 
C 5.135636 19.364917 10.061621 17.324507 13.693064 13.693064 
C 17.324507 10.061621 19.364917 5.135636 19.364917 0 
C 19.364917 -5.135636 17.324507 -10.061621 13.693064 -13.693064 
C 10.061621 -17.324507 5.135636 -19.364917 0 -19.364917 
C -5.135636 -19.364917 -10.061621 -17.324507 -13.693064 -13.693064 
C -17.324507 -10.061621 -19.364917 -5.135636 -19.364917 0 
C -19.364917 5.135636 -17.324507 10.061621 -13.693064 13.693064 
C -10.061621 17.324507 -5.135636 19.364917 0 19.364917 
z
" id="m5d68d32cdf" style="stroke:#ff0000;"/>
    </defs>
    <g clip-path="url(#p42f3643aee)">
     <use style="fill:#ff0000;stroke:#ff0000;" x="185.452649" xlink:href="#m5d68d32cdf" y="79.863443"/>
    </g>
   </g>
   <g id="PathCollection_2">
    <defs>
     <path d="M 0 19.364917 
C 5.135636 19.364917 10.061621 17.324507 13.693064 13.693064 
C 17.324507 10.061621 19.364917 5.135636 19.364917 0 
C 19.364917 -5.135636 17.324507 -10.061621 13.693064 -13.693064 
C 10.061621 -17.324507 5.135636 -19.364917 0 -19.364917 
C -5.135636 -19.364917 -10.061621 -17.324507 -13.693064 -13.693064 
C -17.324507 -10.061621 -19.364917 -5.135636 -19.364917 0 
C -19.364917 5.135636 -17.324507 10.061621 -13.693064 13.693064 
C -10.061621 17.324507 -5.135636 19.364917 0 19.364917 
z
" id="m3cf646321c" style="stroke:#008000;"/>
    </defs>
    <g clip-path="url(#p42f3643aee)">
     <use style="fill:#008000;stroke:#008000;" x="267.993991" xlink:href="#m3cf646321c" y="156.95734"/>
    </g>
   </g>
   <g id="PathCollection_3">
    <defs>
     <path d="M 0 19.364917 
C 5.135636 19.364917 10.061621 17.324507 13.693064 13.693064 
C 17.324507 10.061621 19.364917 5.135636 19.364917 0 
C 19.364917 -5.135636 17.324507 -10.061621 13.693064 -13.693064 
C 10.061621 -17.324507 5.135636 -19.364917 0 -19.364917 
C -5.135636 -19.364917 -10.061621 -17.324507 -13.693064 -13.693064 
C -17.324507 -10.061621 -19.364917 -5.135636 -19.364917 0 
C -19.364917 5.135636 -17.324507 10.061621 -13.693064 13.693064 
C -10.061621 17.324507 -5.135636 19.364917 0 19.364917 
z
" id="mc449373e6e" style="stroke:#0000ff;"/>
    </defs>
    <g clip-path="url(#p42f3643aee)">
     <use style="fill:#0000ff;stroke:#0000ff;" x="174.699105" xlink:href="#mc449373e6e" y="190.394923"/>
    </g>
   </g>
   <g id="PathCollection_4">
    <defs>
     <path d="M 0 19.364917 
C 5.135636 19.364917 10.061621 17.324507 13.693064 13.693064 
C 17.324507 10.061621 19.364917 5.135636 19.364917 0 
C 19.364917 -5.135636 17.324507 -10.061621 13.693064 -13.693064 
C 10.061621 -17.324507 5.135636 -19.364917 0 -19.364917 
C -5.135636 -19.364917 -10.061621 -17.324507 -13.693064 -13.693064 
C -17.324507 -10.061621 -19.364917 -5.135636 -19.364917 0 
C -19.364917 5.135636 -17.324507 10.061621 -13.693064 13.693064 
C -10.061621 17.324507 -5.135636 19.364917 0 19.364917 
z
" id="m83faa72bda" style="stroke:#ff0000;stroke-opacity:0.126087;"/>
    </defs>
    <g clip-path="url(#p42f3643aee)">
     <use style="fill:#ff0000;fill-opacity:0.126087;stroke:#ff0000;stroke-opacity:0.126087;" x="181.320169" xlink:href="#m83faa72bda" y="66.817224"/>
    </g>
   </g>
   <g id="PathCollection_5">
    <defs>
     <path d="M 0 19.364917 
C 5.135636 19.364917 10.061621 17.324507 13.693064 13.693064 
C 17.324507 10.061621 19.364917 5.135636 19.364917 0 
C 19.364917 -5.135636 17.324507 -10.061621 13.693064 -13.693064 
C 10.061621 -17.324507 5.135636 -19.364917 0 -19.364917 
C -5.135636 -19.364917 -10.061621 -17.324507 -13.693064 -13.693064 
C -17.324507 -10.061621 -19.364917 -5.135636 -19.364917 0 
C -19.364917 5.135636 -17.324507 10.061621 -13.693064 13.693064 
C -10.061621 17.324507 -5.135636 19.364917 0 19.364917 
z
" id="m1c391c9cc5" style="stroke:#008000;stroke-opacity:0.126087;"/>
    </defs>
    <g clip-path="url(#p42f3643aee)">
     <use style="fill:#008000;fill-opacity:0.126087;stroke:#008000;stroke-opacity:0.126087;" x="282.29294" xlink:href="#m1c391c9cc5" y="156.057186"/>
    </g>
   </g>
   <g id="PathCollection_6">
    <defs>
     <path d="M 0 19.364917 
C 5.135636 19.364917 10.061621 17.324507 13.693064 13.693064 
C 17.324507 10.061621 19.364917 5.135636 19.364917 0 
C 19.364917 -5.135636 17.324507 -10.061621 13.693064 -13.693064 
C 10.061621 -17.324507 5.135636 -19.364917 0 -19.364917 
C -5.135636 -19.364917 -10.061621 -17.324507 -13.693064 -13.693064 
C -17.324507 -10.061621 -19.364917 -5.135636 -19.364917 0 
C -19.364917 5.135636 -17.324507 10.061621 -13.693064 13.693064 
C -10.061621 17.324507 -5.135636 19.364917 0 19.364917 
z
" id="m3a66475fb4" style="stroke:#0000ff;stroke-opacity:0.126087;"/>
    </defs>
    <g clip-path="url(#p42f3643aee)">
     <use style="fill:#0000ff;fill-opacity:0.126087;stroke:#0000ff;stroke-opacity:0.126087;" x="179.824807" xlink:href="#m3a66475fb4" y="193.147084"/>
    </g>
   </g>
   <g id="PathCollection_7">
    <defs>
     <path d="M 0 19.364917 
C 5.135636 19.364917 10.061621 17.324507 13.693064 13.693064 
C 17.324507 10.061621 19.364917 5.135636 19.364917 0 
C 19.364917 -5.135636 17.324507 -10.061621 13.693064 -13.693064 
C 10.061621 -17.324507 5.135636 -19.364917 0 -19.364917 
C -5.135636 -19.364917 -10.061621 -17.324507 -13.693064 -13.693064 
C -17.324507 -10.061621 -19.364917 -5.135636 -19.364917 0 
C -19.364917 5.135636 -17.324507 10.061621 -13.693064 13.693064 
C -10.061621 17.324507 -5.135636 19.364917 0 19.364917 
z
" id="me64d5812f3" style="stroke:#ff0000;stroke-opacity:0.121739;"/>
    </defs>
    <g clip-path="url(#p42f3643aee)">
     <use style="fill:#ff0000;fill-opacity:0.121739;stroke:#ff0000;stroke-opacity:0.121739;" x="177.19218" xlink:href="#me64d5812f3" y="54.302033"/>
    </g>
   </g>
   <g id="PathCollection_8">
    <defs>
     <path d="M 0 19.364917 
C 5.135636 19.364917 10.061621 17.324507 13.693064 13.693064 
C 17.324507 10.061621 19.364917 5.135636 19.364917 0 
C 19.364917 -5.135636 17.324507 -10.061621 13.693064 -13.693064 
C 10.061621 -17.324507 5.135636 -19.364917 0 -19.364917 
C -5.135636 -19.364917 -10.061621 -17.324507 -13.693064 -13.693064 
C -17.324507 -10.061621 -19.364917 -5.135636 -19.364917 0 
C -19.364917 5.135636 -17.324507 10.061621 -13.693064 13.693064 
C -10.061621 17.324507 -5.135636 19.364917 0 19.364917 
z
" id="m15972d4037" style="stroke:#008000;stroke-opacity:0.121739;"/>
    </defs>
    <g clip-path="url(#p42f3643aee)">
     <use style="fill:#008000;fill-opacity:0.121739;stroke:#008000;stroke-opacity:0.121739;" x="296.606625" xlink:href="#m15972d4037" y="155.131643"/>
    </g>
   </g>
   <g id="PathCollection_9">
    <defs>
     <path d="M 0 19.364917 
C 5.135636 19.364917 10.061621 17.324507 13.693064 13.693064 
C 17.324507 10.061621 19.364917 5.135636 19.364917 0 
C 19.364917 -5.135636 17.324507 -10.061621 13.693064 -13.693064 
C 10.061621 -17.324507 5.135636 -19.364917 0 -19.364917 
C -5.135636 -19.364917 -10.061621 -17.324507 -13.693064 -13.693064 
C -17.324507 -10.061621 -19.364917 -5.135636 -19.364917 0 
C -19.364917 5.135636 -17.324507 10.061621 -13.693064 13.693064 
C -10.061621 17.324507 -5.135636 19.364917 0 19.364917 
z
" id="m87cfdfc3d2" style="stroke:#0000ff;stroke-opacity:0.121739;"/>
    </defs>
    <g clip-path="url(#p42f3643aee)">
     <use style="fill:#0000ff;fill-opacity:0.121739;stroke:#0000ff;stroke-opacity:0.121739;" x="184.965239" xlink:href="#m87cfdfc3d2" y="195.873853"/>
    </g>
   </g>
   <g id="PathCollection_10">
    <defs>
     <path d="M 0 19.364917 
C 5.135636 19.364917 10.061621 17.324507 13.693064 13.693064 
C 17.324507 10.061621 19.364917 5.135636 19.364917 0 
C 19.364917 -5.135636 17.324507 -10.061621 13.693064 -13.693064 
C 10.061621 -17.324507 5.135636 -19.364917 0 -19.364917 
C -5.135636 -19.364917 -10.061621 -17.324507 -13.693064 -13.693064 
C -17.324507 -10.061621 -19.364917 -5.135636 -19.364917 0 
C -19.364917 5.135636 -17.324507 10.061621 -13.693064 13.693064 
C -10.061621 17.324507 -5.135636 19.364917 0 19.364917 
z
" id="m02bd4a17fd" style="stroke:#ff0000;stroke-opacity:0.117391;"/>
    </defs>
    <g clip-path="url(#p42f3643aee)">
     <use style="fill:#ff0000;fill-opacity:0.117391;stroke:#ff0000;stroke-opacity:0.117391;" x="173.173425" xlink:href="#m02bd4a17fd" y="57.880888"/>
    </g>
   </g>
   <g id="PathCollection_11">
    <defs>
     <path d="M 0 19.364917 
C 5.135636 19.364917 10.061621 17.324507 13.693064 13.693064 
C 17.324507 10.061621 19.364917 5.135636 19.364917 0 
C 19.364917 -5.135636 17.324507 -10.061621 13.693064 -13.693064 
C 10.061621 -17.324507 5.135636 -19.364917 0 -19.364917 
C -5.135636 -19.364917 -10.061621 -17.324507 -13.693064 -13.693064 
C -17.324507 -10.061621 -19.364917 -5.135636 -19.364917 0 
C -19.364917 5.135636 -17.324507 10.061621 -13.693064 13.693064 
C -10.061621 17.324507 -5.135636 19.364917 0 19.364917 
z
" id="mbe0d566107" style="stroke:#008000;stroke-opacity:0.117391;"/>
    </defs>
    <g clip-path="url(#p42f3643aee)">
     <use style="fill:#008000;fill-opacity:0.117391;stroke:#008000;stroke-opacity:0.117391;" x="310.935033" xlink:href="#mbe0d566107" y="154.18071"/>
    </g>
   </g>
   <g id="PathCollection_12">
    <defs>
     <path d="M 0 19.364917 
C 5.135636 19.364917 10.061621 17.324507 13.693064 13.693064 
C 17.324507 10.061621 19.364917 5.135636 19.364917 0 
C 19.364917 -5.135636 17.324507 -10.061621 13.693064 -13.693064 
C 10.061621 -17.324507 5.135636 -19.364917 0 -19.364917 
C -5.135636 -19.364917 -10.061621 -17.324507 -13.693064 -13.693064 
C -17.324507 -10.061621 -19.364917 -5.135636 -19.364917 0 
C -19.364917 5.135636 -17.324507 10.061621 -13.693064 13.693064 
C -10.061621 17.324507 -5.135636 19.364917 0 19.364917 
z
" id="mf2d88120e4" style="stroke:#0000ff;stroke-opacity:0.117391;"/>
    </defs>
    <g clip-path="url(#p42f3643aee)">
     <use style="fill:#0000ff;fill-opacity:0.117391;stroke:#0000ff;stroke-opacity:0.117391;" x="190.120401" xlink:href="#mf2d88120e4" y="198.575231"/>
    </g>
   </g>
   <g id="PathCollection_13">
    <defs>
     <path d="M 0 19.364917 
C 5.135636 19.364917 10.061621 17.324507 13.693064 13.693064 
C 17.324507 10.061621 19.364917 5.135636 19.364917 0 
C 19.364917 -5.135636 17.324507 -10.061621 13.693064 -13.693064 
C 10.061621 -17.324507 5.135636 -19.364917 0 -19.364917 
C -5.135636 -19.364917 -10.061621 -17.324507 -13.693064 -13.693064 
C -17.324507 -10.061621 -19.364917 -5.135636 -19.364917 0 
C -19.364917 5.135636 -17.324507 10.061621 -13.693064 13.693064 
C -10.061621 17.324507 -5.135636 19.364917 0 19.364917 
z
" id="m0283a02a43" style="stroke:#ff0000;stroke-opacity:0.113043;"/>
    </defs>
    <g clip-path="url(#p42f3643aee)">
     <use style="fill:#ff0000;fill-opacity:0.113043;stroke:#ff0000;stroke-opacity:0.113043;" x="169.169399" xlink:href="#m0283a02a43" y="61.434354"/>
    </g>
   </g>
   <g id="PathCollection_14">
    <defs>
     <path d="M 0 19.364917 
C 5.135636 19.364917 10.061621 17.324507 13.693064 13.693064 
C 17.324507 10.061621 19.364917 5.135636 19.364917 0 
C 19.364917 -5.135636 17.324507 -10.061621 13.693064 -13.693064 
C 10.061621 -17.324507 5.135636 -19.364917 0 -19.364917 
C -5.135636 -19.364917 -10.061621 -17.324507 -13.693064 -13.693064 
C -17.324507 -10.061621 -19.364917 -5.135636 -19.364917 0 
C -19.364917 5.135636 -17.324507 10.061621 -13.693064 13.693064 
C -10.061621 17.324507 -5.135636 19.364917 0 19.364917 
z
" id="m3ac447c07c" style="stroke:#008000;stroke-opacity:0.113043;"/>
    </defs>
    <g clip-path="url(#p42f3643aee)">
     <use style="fill:#008000;fill-opacity:0.113043;stroke:#008000;stroke-opacity:0.113043;" x="305.685694" xlink:href="#m3ac447c07c" y="153.270939"/>
    </g>
   </g>
   <g id="PathCollection_15">
    <defs>
     <path d="M 0 19.364917 
C 5.135636 19.364917 10.061621 17.324507 13.693064 13.693064 
C 17.324507 10.061621 19.364917 5.135636 19.364917 0 
C 19.364917 -5.135636 17.324507 -10.061621 13.693064 -13.693064 
C 10.061621 -17.324507 5.135636 -19.364917 0 -19.364917 
C -5.135636 -19.364917 -10.061621 -17.324507 -13.693064 -13.693064 
C -17.324507 -10.061621 -19.364917 -5.135636 -19.364917 0 
C -19.364917 5.135636 -17.324507 10.061621 -13.693064 13.693064 
C -10.061621 17.324507 -5.135636 19.364917 0 19.364917 
z
" id="mf8b2f98972" style="stroke:#0000ff;stroke-opacity:0.113043;"/>
    </defs>
    <g clip-path="url(#p42f3643aee)">
     <use style="fill:#0000ff;fill-opacity:0.113043;stroke:#0000ff;stroke-opacity:0.113043;" x="195.290286" xlink:href="#mf8b2f98972" y="201.251221"/>
    </g>
   </g>
   <g id="PathCollection_16">
    <defs>
     <path d="M 0 19.364917 
C 5.135636 19.364917 10.061621 17.324507 13.693064 13.693064 
C 17.324507 10.061621 19.364917 5.135636 19.364917 0 
C 19.364917 -5.135636 17.324507 -10.061621 13.693064 -13.693064 
C 10.061621 -17.324507 5.135636 -19.364917 0 -19.364917 
C -5.135636 -19.364917 -10.061621 -17.324507 -13.693064 -13.693064 
C -17.324507 -10.061621 -19.364917 -5.135636 -19.364917 0 
C -19.364917 5.135636 -17.324507 10.061621 -13.693064 13.693064 
C -10.061621 17.324507 -5.135636 19.364917 0 19.364917 
z
" id="ma99e7fb8bc" style="stroke:#ff0000;stroke-opacity:0.108696;"/>
    </defs>
    <g clip-path="url(#p42f3643aee)">
     <use style="fill:#ff0000;fill-opacity:0.108696;stroke:#ff0000;stroke-opacity:0.108696;" x="165.1801" xlink:href="#ma99e7fb8bc" y="64.96243"/>
    </g>
   </g>
   <g id="PathCollection_17">
    <defs>
     <path d="M 0 19.364917 
C 5.135636 19.364917 10.061621 17.324507 13.693064 13.693064 
C 17.324507 10.061621 19.364917 5.135636 19.364917 0 
C 19.364917 -5.135636 17.324507 -10.061621 13.693064 -13.693064 
C 10.061621 -17.324507 5.135636 -19.364917 0 -19.364917 
C -5.135636 -19.364917 -10.061621 -17.324507 -13.693064 -13.693064 
C -17.324507 -10.061621 -19.364917 -5.135636 -19.364917 0 
C -19.364917 5.135636 -17.324507 10.061621 -13.693064 13.693064 
C -10.061621 17.324507 -5.135636 19.364917 0 19.364917 
z
" id="me6d9e223ed" style="stroke:#008000;stroke-opacity:0.108696;"/>
    </defs>
    <g clip-path="url(#p42f3643aee)">
     <use style="fill:#008000;fill-opacity:0.108696;stroke:#008000;stroke-opacity:0.108696;" x="300.451078" xlink:href="#me6d9e223ed" y="152.335779"/>
    </g>
   </g>
   <g id="PathCollection_18">
    <defs>
     <path d="M 0 19.364917 
C 5.135636 19.364917 10.061621 17.324507 13.693064 13.693064 
C 17.324507 10.061621 19.364917 5.135636 19.364917 0 
C 19.364917 -5.135636 17.324507 -10.061621 13.693064 -13.693064 
C 10.061621 -17.324507 5.135636 -19.364917 0 -19.364917 
C -5.135636 -19.364917 -10.061621 -17.324507 -13.693064 -13.693064 
C -17.324507 -10.061621 -19.364917 -5.135636 -19.364917 0 
C -19.364917 5.135636 -17.324507 10.061621 -13.693064 13.693064 
C -10.061621 17.324507 -5.135636 19.364917 0 19.364917 
z
" id="m2652eb048a" style="stroke:#0000ff;stroke-opacity:0.108696;"/>
    </defs>
    <g clip-path="url(#p42f3643aee)">
     <use style="fill:#0000ff;fill-opacity:0.108696;stroke:#0000ff;stroke-opacity:0.108696;" x="200.732527" xlink:href="#m2652eb048a" y="200.41293"/>
    </g>
   </g>
   <g id="PathCollection_19">
    <defs>
     <path d="M 0 19.364917 
C 5.135636 19.364917 10.061621 17.324507 13.693064 13.693064 
C 17.324507 10.061621 19.364917 5.135636 19.364917 0 
C 19.364917 -5.135636 17.324507 -10.061621 13.693064 -13.693064 
C 10.061621 -17.324507 5.135636 -19.364917 0 -19.364917 
C -5.135636 -19.364917 -10.061621 -17.324507 -13.693064 -13.693064 
C -17.324507 -10.061621 -19.364917 -5.135636 -19.364917 0 
C -19.364917 5.135636 -17.324507 10.061621 -13.693064 13.693064 
C -10.061621 17.324507 -5.135636 19.364917 0 19.364917 
z
" id="m76d213896f" style="stroke:#ff0000;stroke-opacity:0.104348;"/>
    </defs>
    <g clip-path="url(#p42f3643aee)">
     <use style="fill:#ff0000;fill-opacity:0.104348;stroke:#ff0000;stroke-opacity:0.104348;" x="178.036332" xlink:href="#m76d213896f" y="68.600502"/>
    </g>
   </g>
   <g id="PathCollection_20">
    <defs>
     <path d="M 0 19.364917 
C 5.135636 19.364917 10.061621 17.324507 13.693064 13.693064 
C 17.324507 10.061621 19.364917 5.135636 19.364917 0 
C 19.364917 -5.135636 17.324507 -10.061621 13.693064 -13.693064 
C 10.061621 -17.324507 5.135636 -19.364917 0 -19.364917 
C -5.135636 -19.364917 -10.061621 -17.324507 -13.693064 -13.693064 
C -17.324507 -10.061621 -19.364917 -5.135636 -19.364917 0 
C -19.364917 5.135636 -17.324507 10.061621 -13.693064 13.693064 
C -10.061621 17.324507 -5.135636 19.364917 0 19.364917 
z
" id="m6c0f0cfd1d" style="stroke:#008000;stroke-opacity:0.104348;"/>
    </defs>
    <g clip-path="url(#p42f3643aee)">
     <use style="fill:#008000;fill-opacity:0.104348;stroke:#008000;stroke-opacity:0.104348;" x="295.231199" xlink:href="#m6c0f0cfd1d" y="151.37523"/>
    </g>
   </g>
   <g id="PathCollection_21">
    <defs>
     <path d="M 0 19.364917 
C 5.135636 19.364917 10.061621 17.324507 13.693064 13.693064 
C 17.324507 10.061621 19.364917 5.135636 19.364917 0 
C 19.364917 -5.135636 17.324507 -10.061621 13.693064 -13.693064 
C 10.061621 -17.324507 5.135636 -19.364917 0 -19.364917 
C -5.135636 -19.364917 -10.061621 -17.324507 -13.693064 -13.693064 
C -17.324507 -10.061621 -19.364917 -5.135636 -19.364917 0 
C -19.364917 5.135636 -17.324507 10.061621 -13.693064 13.693064 
C -10.061621 17.324507 -5.135636 19.364917 0 19.364917 
z
" id="m69fc6ef2c9" style="stroke:#0000ff;stroke-opacity:0.104348;"/>
    </defs>
    <g clip-path="url(#p42f3643aee)">
     <use style="fill:#0000ff;fill-opacity:0.104348;stroke:#0000ff;stroke-opacity:0.104348;" x="206.189492" xlink:href="#m69fc6ef2c9" y="199.54925"/>
    </g>
   </g>
   <g id="PathCollection_22">
    <defs>
     <path d="M 0 19.364917 
C 5.135636 19.364917 10.061621 17.324507 13.693064 13.693064 
C 17.324507 10.061621 19.364917 5.135636 19.364917 0 
C 19.364917 -5.135636 17.324507 -10.061621 13.693064 -13.693064 
C 10.061621 -17.324507 5.135636 -19.364917 0 -19.364917 
C -5.135636 -19.364917 -10.061621 -17.324507 -13.693064 -13.693064 
C -17.324507 -10.061621 -19.364917 -5.135636 -19.364917 0 
C -19.364917 5.135636 -17.324507 10.061621 -13.693064 13.693064 
C -10.061621 17.324507 -5.135636 19.364917 0 19.364917 
z
" id="meba0feb7c3" style="stroke:#ff0000;stroke-opacity:0.1;"/>
    </defs>
    <g clip-path="url(#p42f3643aee)">
     <use style="fill:#ff0000;fill-opacity:0.1;stroke:#ff0000;stroke-opacity:0.1;" x="190.907294" xlink:href="#meba0feb7c3" y="72.213184"/>
    </g>
   </g>
   <g id="PathCollection_23">
    <defs>
     <path d="M 0 19.364917 
C 5.135636 19.364917 10.061621 17.324507 13.693064 13.693064 
C 17.324507 10.061621 19.364917 5.135636 19.364917 0 
C 19.364917 -5.135636 17.324507 -10.061621 13.693064 -13.693064 
C 10.061621 -17.324507 5.135636 -19.364917 0 -19.364917 
C -5.135636 -19.364917 -10.061621 -17.324507 -13.693064 -13.693064 
C -17.324507 -10.061621 -19.364917 -5.135636 -19.364917 0 
C -19.364917 5.135636 -17.324507 10.061621 -13.693064 13.693064 
C -10.061621 17.324507 -5.135636 19.364917 0 19.364917 
z
" id="m1fdb53c47a" style="stroke:#008000;stroke-opacity:0.1;"/>
    </defs>
    <g clip-path="url(#p42f3643aee)">
     <use style="fill:#008000;fill-opacity:0.1;stroke:#008000;stroke-opacity:0.1;" x="290.026042" xlink:href="#m1fdb53c47a" y="150.389291"/>
    </g>
   </g>
   <g id="PathCollection_24">
    <defs>
     <path d="M 0 19.364917 
C 5.135636 19.364917 10.061621 17.324507 13.693064 13.693064 
C 17.324507 10.061621 19.364917 5.135636 19.364917 0 
C 19.364917 -5.135636 17.324507 -10.061621 13.693064 -13.693064 
C 10.061621 -17.324507 5.135636 -19.364917 0 -19.364917 
C -5.135636 -19.364917 -10.061621 -17.324507 -13.693064 -13.693064 
C -17.324507 -10.061621 -19.364917 -5.135636 -19.364917 0 
C -19.364917 5.135636 -17.324507 10.061621 -13.693064 13.693064 
C -10.061621 17.324507 -5.135636 19.364917 0 19.364917 
z
" id="ma34bb478f0" style="stroke:#0000ff;stroke-opacity:0.1;"/>
    </defs>
    <g clip-path="url(#p42f3643aee)">
     <use style="fill:#0000ff;fill-opacity:0.1;stroke:#0000ff;stroke-opacity:0.1;" x="212.032432" xlink:href="#ma34bb478f0" y="193.033395"/>
    </g>
   </g>
   <g id="PathCollection_25">
    <defs>
     <path d="M 0 19.364917 
C 5.135636 19.364917 10.061621 17.324507 13.693064 13.693064 
C 17.324507 10.061621 19.364917 5.135636 19.364917 0 
C 19.364917 -5.135636 17.324507 -10.061621 13.693064 -13.693064 
C 10.061621 -17.324507 5.135636 -19.364917 0 -19.364917 
C -5.135636 -19.364917 -10.061621 -17.324507 -13.693064 -13.693064 
C -17.324507 -10.061621 -19.364917 -5.135636 -19.364917 0 
C -19.364917 5.135636 -17.324507 10.061621 -13.693064 13.693064 
C -10.061621 17.324507 -5.135636 19.364917 0 19.364917 
z
" id="m7ff695dbe5" style="stroke:#ff0000;stroke-opacity:0.095652;"/>
    </defs>
    <g clip-path="url(#p42f3643aee)">
     <use style="fill:#ff0000;fill-opacity:0.095652;stroke:#ff0000;stroke-opacity:0.095652;" x="203.792985" xlink:href="#m7ff695dbe5" y="75.800477"/>
    </g>
   </g>
   <g id="PathCollection_26">
    <defs>
     <path d="M 0 19.364917 
C 5.135636 19.364917 10.061621 17.324507 13.693064 13.693064 
C 17.324507 10.061621 19.364917 5.135636 19.364917 0 
C 19.364917 -5.135636 17.324507 -10.061621 13.693064 -13.693064 
C 10.061621 -17.324507 5.135636 -19.364917 0 -19.364917 
C -5.135636 -19.364917 -10.061621 -17.324507 -13.693064 -13.693064 
C -17.324507 -10.061621 -19.364917 -5.135636 -19.364917 0 
C -19.364917 5.135636 -17.324507 10.061621 -13.693064 13.693064 
C -10.061621 17.324507 -5.135636 19.364917 0 19.364917 
z
" id="mbc2238f3eb" style="stroke:#008000;stroke-opacity:0.095652;"/>
    </defs>
    <g clip-path="url(#p42f3643aee)">
     <use style="fill:#008000;fill-opacity:0.095652;stroke:#008000;stroke-opacity:0.095652;" x="284.835609" xlink:href="#mbc2238f3eb" y="149.377962"/>
    </g>
   </g>
   <g id="PathCollection_27">
    <defs>
     <path d="M 0 19.364917 
C 5.135636 19.364917 10.061621 17.324507 13.693064 13.693064 
C 17.324507 10.061621 19.364917 5.135636 19.364917 0 
C 19.364917 -5.135636 17.324507 -10.061621 13.693064 -13.693064 
C 10.061621 -17.324507 5.135636 -19.364917 0 -19.364917 
C -5.135636 -19.364917 -10.061621 -17.324507 -13.693064 -13.693064 
C -17.324507 -10.061621 -19.364917 -5.135636 -19.364917 0 
C -19.364917 5.135636 -17.324507 10.061621 -13.693064 13.693064 
C -10.061621 17.324507 -5.135636 19.364917 0 19.364917 
z
" id="m4cd289e132" style="stroke:#0000ff;stroke-opacity:0.095652;"/>
    </defs>
    <g clip-path="url(#p42f3643aee)">
     <use style="fill:#0000ff;fill-opacity:0.095652;stroke:#0000ff;stroke-opacity:0.095652;" x="217.890094" xlink:href="#m4cd289e132" y="186.492151"/>
    </g>
   </g>
   <g id="PathCollection_28">
    <defs>
     <path d="M 0 19.364917 
C 5.135636 19.364917 10.061621 17.324507 13.693064 13.693064 
C 17.324507 10.061621 19.364917 5.135636 19.364917 0 
C 19.364917 -5.135636 17.324507 -10.061621 13.693064 -13.693064 
C 10.061621 -17.324507 5.135636 -19.364917 0 -19.364917 
C -5.135636 -19.364917 -10.061621 -17.324507 -13.693064 -13.693064 
C -17.324507 -10.061621 -19.364917 -5.135636 -19.364917 0 
C -19.364917 5.135636 -17.324507 10.061621 -13.693064 13.693064 
C -10.061621 17.324507 -5.135636 19.364917 0 19.364917 
z
" id="m1e72cc1883" style="stroke:#ff0000;stroke-opacity:0.091304;"/>
    </defs>
    <g clip-path="url(#p42f3643aee)">
     <use style="fill:#ff0000;fill-opacity:0.091304;stroke:#ff0000;stroke-opacity:0.091304;" x="216.693399" xlink:href="#m1e72cc1883" y="79.36238"/>
    </g>
   </g>
   <g id="PathCollection_29">
    <defs>
     <path d="M 0 19.364917 
C 5.135636 19.364917 10.061621 17.324507 13.693064 13.693064 
C 17.324507 10.061621 19.364917 5.135636 19.364917 0 
C 19.364917 -5.135636 17.324507 -10.061621 13.693064 -13.693064 
C 10.061621 -17.324507 5.135636 -19.364917 0 -19.364917 
C -5.135636 -19.364917 -10.061621 -17.324507 -13.693064 -13.693064 
C -17.324507 -10.061621 -19.364917 -5.135636 -19.364917 0 
C -19.364917 5.135636 -17.324507 10.061621 -13.693064 13.693064 
C -10.061621 17.324507 -5.135636 19.364917 0 19.364917 
z
" id="m76c7cb67bc" style="stroke:#008000;stroke-opacity:0.091304;"/>
    </defs>
    <g clip-path="url(#p42f3643aee)">
     <use style="fill:#008000;fill-opacity:0.091304;stroke:#008000;stroke-opacity:0.091304;" x="279.659911" xlink:href="#m76c7cb67bc" y="148.341244"/>
    </g>
   </g>
   <g id="PathCollection_30">
    <defs>
     <path d="M 0 19.364917 
C 5.135636 19.364917 10.061621 17.324507 13.693064 13.693064 
C 17.324507 10.061621 19.364917 5.135636 19.364917 0 
C 19.364917 -5.135636 17.324507 -10.061621 13.693064 -13.693064 
C 10.061621 -17.324507 5.135636 -19.364917 0 -19.364917 
C -5.135636 -19.364917 -10.061621 -17.324507 -13.693064 -13.693064 
C -17.324507 -10.061621 -19.364917 -5.135636 -19.364917 0 
C -19.364917 5.135636 -17.324507 10.061621 -13.693064 13.693064 
C -10.061621 17.324507 -5.135636 19.364917 0 19.364917 
z
" id="m29f61f539f" style="stroke:#0000ff;stroke-opacity:0.091304;"/>
    </defs>
    <g clip-path="url(#p42f3643aee)">
     <use style="fill:#0000ff;fill-opacity:0.091304;stroke:#0000ff;stroke-opacity:0.091304;" x="223.762486" xlink:href="#m29f61f539f" y="179.925517"/>
    </g>
   </g>
   <g id="matplotlib.axis_1"/>
   <g id="matplotlib.axis_2"/>
   <g id="patch_3">
    <path d="M 112.68 252 
L 112.68 34.56 
" style="fill:none;stroke:#000000;stroke-linecap:square;stroke-linejoin:miter;stroke-width:0.8;"/>
   </g>
   <g id="patch_4">
    <path d="M 330.12 252 
L 330.12 34.56 
" style="fill:none;stroke:#000000;stroke-linecap:square;stroke-linejoin:miter;stroke-width:0.8;"/>
   </g>
   <g id="patch_5">
    <path d="M 112.68 252 
L 330.12 252 
" style="fill:none;stroke:#000000;stroke-linecap:square;stroke-linejoin:miter;stroke-width:0.8;"/>
   </g>
   <g id="patch_6">
    <path d="M 112.68 34.56 
L 330.12 34.56 
" style="fill:none;stroke:#000000;stroke-linecap:square;stroke-linejoin:miter;stroke-width:0.8;"/>
   </g>
  </g>
 </g>
 <defs>
  <clipPath id="p42f3643aee">
   <rect height="217.44" width="217.44" x="112.68" y="34.56"/>
  </clipPath>
 </defs>
</svg>
