<?xml version="1.0" encoding="utf-8" standalone="no"?>
<!DOCTYPE svg PUBLIC "-//W3C//DTD SVG 1.1//EN"
  "http://www.w3.org/Graphics/SVG/1.1/DTD/svg11.dtd">
<!-- Created with matplotlib (https://matplotlib.org/) -->
<svg height="288pt" version="1.1" viewBox="0 0 432 288" width="432pt" xmlns="http://www.w3.org/2000/svg" xmlns:xlink="http://www.w3.org/1999/xlink">
 <defs>
  <style type="text/css">
*{stroke-linecap:butt;stroke-linejoin:round;}
  </style>
 </defs>
 <g id="figure_1">
  <g id="patch_1">
   <path d="M 0 288 
L 432 288 
L 432 0 
L 0 0 
z
" style="fill:#ffffff;"/>
  </g>
  <g id="axes_1">
   <g id="patch_2">
    <path d="M 112.68 252 
L 330.12 252 
L 330.12 34.56 
L 112.68 34.56 
z
" style="fill:#ffffff;"/>
   </g>
   <g id="PathCollection_1">
    <defs>
     <path d="M 0 19.364917 
C 5.135636 19.364917 10.061621 17.324507 13.693064 13.693064 
C 17.324507 10.061621 19.364917 5.135636 19.364917 0 
C 19.364917 -5.135636 17.324507 -10.061621 13.693064 -13.693064 
C 10.061621 -17.324507 5.135636 -19.364917 0 -19.364917 
C -5.135636 -19.364917 -10.061621 -17.324507 -13.693064 -13.693064 
C -17.324507 -10.061621 -19.364917 -5.135636 -19.364917 0 
C -19.364917 5.135636 -17.324507 10.061621 -13.693064 13.693064 
C -10.061621 17.324507 -5.135636 19.364917 0 19.364917 
z
" id="m8babdc113d" style="stroke:#ff0000;"/>
    </defs>
    <g clip-path="url(#pda3dc8442b)">
     <use style="fill:#ff0000;stroke:#ff0000;" x="185.452649" xlink:href="#m8babdc113d" y="79.863443"/>
    </g>
   </g>
   <g id="PathCollection_2">
    <defs>
     <path d="M 0 19.364917 
C 5.135636 19.364917 10.061621 17.324507 13.693064 13.693064 
C 17.324507 10.061621 19.364917 5.135636 19.364917 0 
C 19.364917 -5.135636 17.324507 -10.061621 13.693064 -13.693064 
C 10.061621 -17.324507 5.135636 -19.364917 0 -19.364917 
C -5.135636 -19.364917 -10.061621 -17.324507 -13.693064 -13.693064 
C -17.324507 -10.061621 -19.364917 -5.135636 -19.364917 0 
C -19.364917 5.135636 -17.324507 10.061621 -13.693064 13.693064 
C -10.061621 17.324507 -5.135636 19.364917 0 19.364917 
z
" id="mdb4ad4f8e9" style="stroke:#008000;"/>
    </defs>
    <g clip-path="url(#pda3dc8442b)">
     <use style="fill:#008000;stroke:#008000;" x="267.993991" xlink:href="#mdb4ad4f8e9" y="156.95734"/>
    </g>
   </g>
   <g id="PathCollection_3">
    <defs>
     <path d="M 0 19.364917 
C 5.135636 19.364917 10.061621 17.324507 13.693064 13.693064 
C 17.324507 10.061621 19.364917 5.135636 19.364917 0 
C 19.364917 -5.135636 17.324507 -10.061621 13.693064 -13.693064 
C 10.061621 -17.324507 5.135636 -19.364917 0 -19.364917 
C -5.135636 -19.364917 -10.061621 -17.324507 -13.693064 -13.693064 
C -17.324507 -10.061621 -19.364917 -5.135636 -19.364917 0 
C -19.364917 5.135636 -17.324507 10.061621 -13.693064 13.693064 
C -10.061621 17.324507 -5.135636 19.364917 0 19.364917 
z
" id="m0592aed87a" style="stroke:#0000ff;"/>
    </defs>
    <g clip-path="url(#pda3dc8442b)">
     <use style="fill:#0000ff;stroke:#0000ff;" x="174.699105" xlink:href="#m0592aed87a" y="190.394923"/>
    </g>
   </g>
   <g id="PathCollection_4">
    <defs>
     <path d="M 0 19.364917 
C 5.135636 19.364917 10.061621 17.324507 13.693064 13.693064 
C 17.324507 10.061621 19.364917 5.135636 19.364917 0 
C 19.364917 -5.135636 17.324507 -10.061621 13.693064 -13.693064 
C 10.061621 -17.324507 5.135636 -19.364917 0 -19.364917 
C -5.135636 -19.364917 -10.061621 -17.324507 -13.693064 -13.693064 
C -17.324507 -10.061621 -19.364917 -5.135636 -19.364917 0 
C -19.364917 5.135636 -17.324507 10.061621 -13.693064 13.693064 
C -10.061621 17.324507 -5.135636 19.364917 0 19.364917 
z
" id="m52e5629998" style="stroke:#ff0000;stroke-opacity:0.126087;"/>
    </defs>
    <g clip-path="url(#pda3dc8442b)">
     <use style="fill:#ff0000;fill-opacity:0.126087;stroke:#ff0000;stroke-opacity:0.126087;" x="177.073294" xlink:href="#m52e5629998" y="71.064099"/>
    </g>
   </g>
   <g id="PathCollection_5">
    <defs>
     <path d="M 0 19.364917 
C 5.135636 19.364917 10.061621 17.324507 13.693064 13.693064 
C 17.324507 10.061621 19.364917 5.135636 19.364917 0 
C 19.364917 -5.135636 17.324507 -10.061621 13.693064 -13.693064 
C 10.061621 -17.324507 5.135636 -19.364917 0 -19.364917 
C -5.135636 -19.364917 -10.061621 -17.324507 -13.693064 -13.693064 
C -17.324507 -10.061621 -19.364917 -5.135636 -19.364917 0 
C -19.364917 5.135636 -17.324507 10.061621 -13.693064 13.693064 
C -10.061621 17.324507 -5.135636 19.364917 0 19.364917 
z
" id="m59a13c6e04" style="stroke:#008000;stroke-opacity:0.126087;"/>
    </defs>
    <g clip-path="url(#pda3dc8442b)">
     <use style="fill:#008000;fill-opacity:0.126087;stroke:#008000;stroke-opacity:0.126087;" x="278.046065" xlink:href="#m59a13c6e04" y="160.304061"/>
    </g>
   </g>
   <g id="PathCollection_6">
    <defs>
     <path d="M 0 19.364917 
C 5.135636 19.364917 10.061621 17.324507 13.693064 13.693064 
C 17.324507 10.061621 19.364917 5.135636 19.364917 0 
C 19.364917 -5.135636 17.324507 -10.061621 13.693064 -13.693064 
C 10.061621 -17.324507 5.135636 -19.364917 0 -19.364917 
C -5.135636 -19.364917 -10.061621 -17.324507 -13.693064 -13.693064 
C -17.324507 -10.061621 -19.364917 -5.135636 -19.364917 0 
C -19.364917 5.135636 -17.324507 10.061621 -13.693064 13.693064 
C -10.061621 17.324507 -5.135636 19.364917 0 19.364917 
z
" id="m176c8f21a5" style="stroke:#0000ff;stroke-opacity:0.126087;"/>
    </defs>
    <g clip-path="url(#pda3dc8442b)">
     <use style="fill:#0000ff;fill-opacity:0.126087;stroke:#0000ff;stroke-opacity:0.126087;" x="175.577932" xlink:href="#m176c8f21a5" y="197.393959"/>
    </g>
   </g>
   <g id="PathCollection_7">
    <defs>
     <path d="M 0 19.364917 
C 5.135636 19.364917 10.061621 17.324507 13.693064 13.693064 
C 17.324507 10.061621 19.364917 5.135636 19.364917 0 
C 19.364917 -5.135636 17.324507 -10.061621 13.693064 -13.693064 
C 10.061621 -17.324507 5.135636 -19.364917 0 -19.364917 
C -5.135636 -19.364917 -10.061621 -17.324507 -13.693064 -13.693064 
C -17.324507 -10.061621 -19.364917 -5.135636 -19.364917 0 
C -19.364917 5.135636 -17.324507 10.061621 -13.693064 13.693064 
C -10.061621 17.324507 -5.135636 19.364917 0 19.364917 
z
" id="m358f13d4a6" style="stroke:#ff0000;stroke-opacity:0.121739;"/>
    </defs>
    <g clip-path="url(#pda3dc8442b)">
     <use style="fill:#ff0000;fill-opacity:0.121739;stroke:#ff0000;stroke-opacity:0.121739;" x="168.69843" xlink:href="#m358f13d4a6" y="62.795783"/>
    </g>
   </g>
   <g id="PathCollection_8">
    <defs>
     <path d="M 0 19.364917 
C 5.135636 19.364917 10.061621 17.324507 13.693064 13.693064 
C 17.324507 10.061621 19.364917 5.135636 19.364917 0 
C 19.364917 -5.135636 17.324507 -10.061621 13.693064 -13.693064 
C 10.061621 -17.324507 5.135636 -19.364917 0 -19.364917 
C -5.135636 -19.364917 -10.061621 -17.324507 -13.693064 -13.693064 
C -17.324507 -10.061621 -19.364917 -5.135636 -19.364917 0 
C -19.364917 5.135636 -17.324507 10.061621 -13.693064 13.693064 
C -10.061621 17.324507 -5.135636 19.364917 0 19.364917 
z
" id="m752a313a08" style="stroke:#008000;stroke-opacity:0.121739;"/>
    </defs>
    <g clip-path="url(#pda3dc8442b)">
     <use style="fill:#008000;fill-opacity:0.121739;stroke:#008000;stroke-opacity:0.121739;" x="288.112875" xlink:href="#m752a313a08" y="163.625393"/>
    </g>
   </g>
   <g id="PathCollection_9">
    <defs>
     <path d="M 0 19.364917 
C 5.135636 19.364917 10.061621 17.324507 13.693064 13.693064 
C 17.324507 10.061621 19.364917 5.135636 19.364917 0 
C 19.364917 -5.135636 17.324507 -10.061621 13.693064 -13.693064 
C 10.061621 -17.324507 5.135636 -19.364917 0 -19.364917 
C -5.135636 -19.364917 -10.061621 -17.324507 -13.693064 -13.693064 
C -17.324507 -10.061621 -19.364917 -5.135636 -19.364917 0 
C -19.364917 5.135636 -17.324507 10.061621 -13.693064 13.693064 
C -10.061621 17.324507 -5.135636 19.364917 0 19.364917 
z
" id="m71ed7441bc" style="stroke:#0000ff;stroke-opacity:0.121739;"/>
    </defs>
    <g clip-path="url(#pda3dc8442b)">
     <use style="fill:#0000ff;fill-opacity:0.121739;stroke:#0000ff;stroke-opacity:0.121739;" x="176.471489" xlink:href="#m71ed7441bc" y="204.367603"/>
    </g>
   </g>
   <g id="PathCollection_10">
    <defs>
     <path d="M 0 19.364917 
C 5.135636 19.364917 10.061621 17.324507 13.693064 13.693064 
C 17.324507 10.061621 19.364917 5.135636 19.364917 0 
C 19.364917 -5.135636 17.324507 -10.061621 13.693064 -13.693064 
C 10.061621 -17.324507 5.135636 -19.364917 0 -19.364917 
C -5.135636 -19.364917 -10.061621 -17.324507 -13.693064 -13.693064 
C -17.324507 -10.061621 -19.364917 -5.135636 -19.364917 0 
C -19.364917 5.135636 -17.324507 10.061621 -13.693064 13.693064 
C -10.061621 17.324507 -5.135636 19.364917 0 19.364917 
z
" id="md7f6d2badc" style="stroke:#ff0000;stroke-opacity:0.117391;"/>
    </defs>
    <g clip-path="url(#pda3dc8442b)">
     <use style="fill:#ff0000;fill-opacity:0.117391;stroke:#ff0000;stroke-opacity:0.117391;" x="160.4328" xlink:href="#md7f6d2badc" y="70.621513"/>
    </g>
   </g>
   <g id="PathCollection_11">
    <defs>
     <path d="M 0 19.364917 
C 5.135636 19.364917 10.061621 17.324507 13.693064 13.693064 
C 17.324507 10.061621 19.364917 5.135636 19.364917 0 
C 19.364917 -5.135636 17.324507 -10.061621 13.693064 -13.693064 
C 10.061621 -17.324507 5.135636 -19.364917 0 -19.364917 
C -5.135636 -19.364917 -10.061621 -17.324507 -13.693064 -13.693064 
C -17.324507 -10.061621 -19.364917 -5.135636 -19.364917 0 
C -19.364917 5.135636 -17.324507 10.061621 -13.693064 13.693064 
C -10.061621 17.324507 -5.135636 19.364917 0 19.364917 
z
" id="ma72f5498db" style="stroke:#008000;stroke-opacity:0.117391;"/>
    </defs>
    <g clip-path="url(#pda3dc8442b)">
     <use style="fill:#008000;fill-opacity:0.117391;stroke:#008000;stroke-opacity:0.117391;" x="298.194408" xlink:href="#ma72f5498db" y="166.921335"/>
    </g>
   </g>
   <g id="PathCollection_12">
    <defs>
     <path d="M 0 19.364917 
C 5.135636 19.364917 10.061621 17.324507 13.693064 13.693064 
C 17.324507 10.061621 19.364917 5.135636 19.364917 0 
C 19.364917 -5.135636 17.324507 -10.061621 13.693064 -13.693064 
C 10.061621 -17.324507 5.135636 -19.364917 0 -19.364917 
C -5.135636 -19.364917 -10.061621 -17.324507 -13.693064 -13.693064 
C -17.324507 -10.061621 -19.364917 -5.135636 -19.364917 0 
C -19.364917 5.135636 -17.324507 10.061621 -13.693064 13.693064 
C -10.061621 17.324507 -5.135636 19.364917 0 19.364917 
z
" id="m52f180a845" style="stroke:#0000ff;stroke-opacity:0.117391;"/>
    </defs>
    <g clip-path="url(#pda3dc8442b)">
     <use style="fill:#0000ff;fill-opacity:0.117391;stroke:#0000ff;stroke-opacity:0.117391;" x="177.379776" xlink:href="#m52f180a845" y="211.315856"/>
    </g>
   </g>
   <g id="PathCollection_13">
    <defs>
     <path d="M 0 19.364917 
C 5.135636 19.364917 10.061621 17.324507 13.693064 13.693064 
C 17.324507 10.061621 19.364917 5.135636 19.364917 0 
C 19.364917 -5.135636 17.324507 -10.061621 13.693064 -13.693064 
C 10.061621 -17.324507 5.135636 -19.364917 0 -19.364917 
C -5.135636 -19.364917 -10.061621 -17.324507 -13.693064 -13.693064 
C -17.324507 -10.061621 -19.364917 -5.135636 -19.364917 0 
C -19.364917 5.135636 -17.324507 10.061621 -13.693064 13.693064 
C -10.061621 17.324507 -5.135636 19.364917 0 19.364917 
z
" id="mc31059ad53" style="stroke:#ff0000;stroke-opacity:0.113043;"/>
    </defs>
    <g clip-path="url(#pda3dc8442b)">
     <use style="fill:#ff0000;fill-opacity:0.113043;stroke:#ff0000;stroke-opacity:0.113043;" x="152.181899" xlink:href="#mc31059ad53" y="78.421854"/>
    </g>
   </g>
   <g id="PathCollection_14">
    <defs>
     <path d="M 0 19.364917 
C 5.135636 19.364917 10.061621 17.324507 13.693064 13.693064 
C 17.324507 10.061621 19.364917 5.135636 19.364917 0 
C 19.364917 -5.135636 17.324507 -10.061621 13.693064 -13.693064 
C 10.061621 -17.324507 5.135636 -19.364917 0 -19.364917 
C -5.135636 -19.364917 -10.061621 -17.324507 -13.693064 -13.693064 
C -17.324507 -10.061621 -19.364917 -5.135636 -19.364917 0 
C -19.364917 5.135636 -17.324507 10.061621 -13.693064 13.693064 
C -10.061621 17.324507 -5.135636 19.364917 0 19.364917 
z
" id="mbc28fa1e1b" style="stroke:#008000;stroke-opacity:0.113043;"/>
    </defs>
    <g clip-path="url(#pda3dc8442b)">
     <use style="fill:#008000;fill-opacity:0.113043;stroke:#008000;stroke-opacity:0.113043;" x="288.698194" xlink:href="#mbc28fa1e1b" y="170.258439"/>
    </g>
   </g>
   <g id="PathCollection_15">
    <defs>
     <path d="M 0 19.364917 
C 5.135636 19.364917 10.061621 17.324507 13.693064 13.693064 
C 17.324507 10.061621 19.364917 5.135636 19.364917 0 
C 19.364917 -5.135636 17.324507 -10.061621 13.693064 -13.693064 
C 10.061621 -17.324507 5.135636 -19.364917 0 -19.364917 
C -5.135636 -19.364917 -10.061621 -17.324507 -13.693064 -13.693064 
C -17.324507 -10.061621 -19.364917 -5.135636 -19.364917 0 
C -19.364917 5.135636 -17.324507 10.061621 -13.693064 13.693064 
C -10.061621 17.324507 -5.135636 19.364917 0 19.364917 
z
" id="m0c0eac586a" style="stroke:#0000ff;stroke-opacity:0.113043;"/>
    </defs>
    <g clip-path="url(#pda3dc8442b)">
     <use style="fill:#0000ff;fill-opacity:0.113043;stroke:#0000ff;stroke-opacity:0.113043;" x="178.302786" xlink:href="#m0c0eac586a" y="218.238721"/>
    </g>
   </g>
   <g id="PathCollection_16">
    <defs>
     <path d="M 0 19.364917 
C 5.135636 19.364917 10.061621 17.324507 13.693064 13.693064 
C 17.324507 10.061621 19.364917 5.135636 19.364917 0 
C 19.364917 -5.135636 17.324507 -10.061621 13.693064 -13.693064 
C 10.061621 -17.324507 5.135636 -19.364917 0 -19.364917 
C -5.135636 -19.364917 -10.061621 -17.324507 -13.693064 -13.693064 
C -17.324507 -10.061621 -19.364917 -5.135636 -19.364917 0 
C -19.364917 5.135636 -17.324507 10.061621 -13.693064 13.693064 
C -10.061621 17.324507 -5.135636 19.364917 0 19.364917 
z
" id="m634a14e1d2" style="stroke:#ff0000;stroke-opacity:0.108696;"/>
    </defs>
    <g clip-path="url(#pda3dc8442b)">
     <use style="fill:#ff0000;fill-opacity:0.108696;stroke:#ff0000;stroke-opacity:0.108696;" x="143.945725" xlink:href="#m634a14e1d2" y="86.196805"/>
    </g>
   </g>
   <g id="PathCollection_17">
    <defs>
     <path d="M 0 19.364917 
C 5.135636 19.364917 10.061621 17.324507 13.693064 13.693064 
C 17.324507 10.061621 19.364917 5.135636 19.364917 0 
C 19.364917 -5.135636 17.324507 -10.061621 13.693064 -13.693064 
C 10.061621 -17.324507 5.135636 -19.364917 0 -19.364917 
C -5.135636 -19.364917 -10.061621 -17.324507 -13.693064 -13.693064 
C -17.324507 -10.061621 -19.364917 -5.135636 -19.364917 0 
C -19.364917 5.135636 -17.324507 10.061621 -13.693064 13.693064 
C -10.061621 17.324507 -5.135636 19.364917 0 19.364917 
z
" id="mdedde788da" style="stroke:#008000;stroke-opacity:0.108696;"/>
    </defs>
    <g clip-path="url(#pda3dc8442b)">
     <use style="fill:#008000;fill-opacity:0.108696;stroke:#008000;stroke-opacity:0.108696;" x="279.216703" xlink:href="#mdedde788da" y="173.570154"/>
    </g>
   </g>
   <g id="PathCollection_18">
    <defs>
     <path d="M 0 19.364917 
C 5.135636 19.364917 10.061621 17.324507 13.693064 13.693064 
C 17.324507 10.061621 19.364917 5.135636 19.364917 0 
C 19.364917 -5.135636 17.324507 -10.061621 13.693064 -13.693064 
C 10.061621 -17.324507 5.135636 -19.364917 0 -19.364917 
C -5.135636 -19.364917 -10.061621 -17.324507 -13.693064 -13.693064 
C -17.324507 -10.061621 -19.364917 -5.135636 -19.364917 0 
C -19.364917 5.135636 -17.324507 10.061621 -13.693064 13.693064 
C -10.061621 17.324507 -5.135636 19.364917 0 19.364917 
z
" id="m1f4d754f06" style="stroke:#0000ff;stroke-opacity:0.108696;"/>
    </defs>
    <g clip-path="url(#pda3dc8442b)">
     <use style="fill:#0000ff;fill-opacity:0.108696;stroke:#0000ff;stroke-opacity:0.108696;" x="179.498152" xlink:href="#m1f4d754f06" y="221.647305"/>
    </g>
   </g>
   <g id="PathCollection_19">
    <defs>
     <path d="M 0 19.364917 
C 5.135636 19.364917 10.061621 17.324507 13.693064 13.693064 
C 17.324507 10.061621 19.364917 5.135636 19.364917 0 
C 19.364917 -5.135636 17.324507 -10.061621 13.693064 -13.693064 
C 10.061621 -17.324507 5.135636 -19.364917 0 -19.364917 
C -5.135636 -19.364917 -10.061621 -17.324507 -13.693064 -13.693064 
C -17.324507 -10.061621 -19.364917 -5.135636 -19.364917 0 
C -19.364917 5.135636 -17.324507 10.061621 -13.693064 13.693064 
C -10.061621 17.324507 -5.135636 19.364917 0 19.364917 
z
" id="me7ac589d3e" style="stroke:#ff0000;stroke-opacity:0.104348;"/>
    </defs>
    <g clip-path="url(#pda3dc8442b)">
     <use style="fill:#ff0000;fill-opacity:0.104348;stroke:#ff0000;stroke-opacity:0.104348;" x="152.555082" xlink:href="#me7ac589d3e" y="94.081752"/>
    </g>
   </g>
   <g id="PathCollection_20">
    <defs>
     <path d="M 0 19.364917 
C 5.135636 19.364917 10.061621 17.324507 13.693064 13.693064 
C 17.324507 10.061621 19.364917 5.135636 19.364917 0 
C 19.364917 -5.135636 17.324507 -10.061621 13.693064 -13.693064 
C 10.061621 -17.324507 5.135636 -19.364917 0 -19.364917 
C -5.135636 -19.364917 -10.061621 -17.324507 -13.693064 -13.693064 
C -17.324507 -10.061621 -19.364917 -5.135636 -19.364917 0 
C -19.364917 5.135636 -17.324507 10.061621 -13.693064 13.693064 
C -10.061621 17.324507 -5.135636 19.364917 0 19.364917 
z
" id="m3abac99db3" style="stroke:#008000;stroke-opacity:0.104348;"/>
    </defs>
    <g clip-path="url(#pda3dc8442b)">
     <use style="fill:#008000;fill-opacity:0.104348;stroke:#008000;stroke-opacity:0.104348;" x="269.749949" xlink:href="#m3abac99db3" y="176.85648"/>
    </g>
   </g>
   <g id="PathCollection_21">
    <defs>
     <path d="M 0 19.364917 
C 5.135636 19.364917 10.061621 17.324507 13.693064 13.693064 
C 17.324507 10.061621 19.364917 5.135636 19.364917 0 
C 19.364917 -5.135636 17.324507 -10.061621 13.693064 -13.693064 
C 10.061621 -17.324507 5.135636 -19.364917 0 -19.364917 
C -5.135636 -19.364917 -10.061621 -17.324507 -13.693064 -13.693064 
C -17.324507 -10.061621 -19.364917 -5.135636 -19.364917 0 
C -19.364917 5.135636 -17.324507 10.061621 -13.693064 13.693064 
C -10.061621 17.324507 -5.135636 19.364917 0 19.364917 
z
" id="m52eed87411" style="stroke:#0000ff;stroke-opacity:0.104348;"/>
    </defs>
    <g clip-path="url(#pda3dc8442b)">
     <use style="fill:#0000ff;fill-opacity:0.104348;stroke:#0000ff;stroke-opacity:0.104348;" x="180.708242" xlink:href="#m52eed87411" y="225.0305"/>
    </g>
   </g>
   <g id="PathCollection_22">
    <defs>
     <path d="M 0 19.364917 
C 5.135636 19.364917 10.061621 17.324507 13.693064 13.693064 
C 17.324507 10.061621 19.364917 5.135636 19.364917 0 
C 19.364917 -5.135636 17.324507 -10.061621 13.693064 -13.693064 
C 10.061621 -17.324507 5.135636 -19.364917 0 -19.364917 
C -5.135636 -19.364917 -10.061621 -17.324507 -13.693064 -13.693064 
C -17.324507 -10.061621 -19.364917 -5.135636 -19.364917 0 
C -19.364917 5.135636 -17.324507 10.061621 -13.693064 13.693064 
C -10.061621 17.324507 -5.135636 19.364917 0 19.364917 
z
" id="mbfff2e70f2" style="stroke:#ff0000;stroke-opacity:0.1;"/>
    </defs>
    <g clip-path="url(#pda3dc8442b)">
     <use style="fill:#ff0000;fill-opacity:0.1;stroke:#ff0000;stroke-opacity:0.1;" x="161.179169" xlink:href="#mbfff2e70f2" y="101.941309"/>
    </g>
   </g>
   <g id="PathCollection_23">
    <defs>
     <path d="M 0 19.364917 
C 5.135636 19.364917 10.061621 17.324507 13.693064 13.693064 
C 17.324507 10.061621 19.364917 5.135636 19.364917 0 
C 19.364917 -5.135636 17.324507 -10.061621 13.693064 -13.693064 
C 10.061621 -17.324507 5.135636 -19.364917 0 -19.364917 
C -5.135636 -19.364917 -10.061621 -17.324507 -13.693064 -13.693064 
C -17.324507 -10.061621 -19.364917 -5.135636 -19.364917 0 
C -19.364917 5.135636 -17.324507 10.061621 -13.693064 13.693064 
C -10.061621 17.324507 -5.135636 19.364917 0 19.364917 
z
" id="m05bce191cb" style="stroke:#008000;stroke-opacity:0.1;"/>
    </defs>
    <g clip-path="url(#pda3dc8442b)">
     <use style="fill:#008000;fill-opacity:0.1;stroke:#008000;stroke-opacity:0.1;" x="260.297917" xlink:href="#m05bce191cb" y="180.117416"/>
    </g>
   </g>
   <g id="PathCollection_24">
    <defs>
     <path d="M 0 19.364917 
C 5.135636 19.364917 10.061621 17.324507 13.693064 13.693064 
C 17.324507 10.061621 19.364917 5.135636 19.364917 0 
C 19.364917 -5.135636 17.324507 -10.061621 13.693064 -13.693064 
C 10.061621 -17.324507 5.135636 -19.364917 0 -19.364917 
C -5.135636 -19.364917 -10.061621 -17.324507 -13.693064 -13.693064 
C -17.324507 -10.061621 -19.364917 -5.135636 -19.364917 0 
C -19.364917 5.135636 -17.324507 10.061621 -13.693064 13.693064 
C -10.061621 17.324507 -5.135636 19.364917 0 19.364917 
z
" id="m57fcbca465" style="stroke:#0000ff;stroke-opacity:0.1;"/>
    </defs>
    <g clip-path="url(#pda3dc8442b)">
     <use style="fill:#0000ff;fill-opacity:0.1;stroke:#0000ff;stroke-opacity:0.1;" x="182.304307" xlink:href="#m57fcbca465" y="222.76152"/>
    </g>
   </g>
   <g id="PathCollection_25">
    <defs>
     <path d="M 0 19.364917 
C 5.135636 19.364917 10.061621 17.324507 13.693064 13.693064 
C 17.324507 10.061621 19.364917 5.135636 19.364917 0 
C 19.364917 -5.135636 17.324507 -10.061621 13.693064 -13.693064 
C 10.061621 -17.324507 5.135636 -19.364917 0 -19.364917 
C -5.135636 -19.364917 -10.061621 -17.324507 -13.693064 -13.693064 
C -17.324507 -10.061621 -19.364917 -5.135636 -19.364917 0 
C -19.364917 5.135636 -17.324507 10.061621 -13.693064 13.693064 
C -10.061621 17.324507 -5.135636 19.364917 0 19.364917 
z
" id="m57bed7f98e" style="stroke:#ff0000;stroke-opacity:0.095652;"/>
    </defs>
    <g clip-path="url(#pda3dc8442b)">
     <use style="fill:#ff0000;fill-opacity:0.095652;stroke:#ff0000;stroke-opacity:0.095652;" x="169.817985" xlink:href="#m57bed7f98e" y="109.775477"/>
    </g>
   </g>
   <g id="PathCollection_26">
    <defs>
     <path d="M 0 19.364917 
C 5.135636 19.364917 10.061621 17.324507 13.693064 13.693064 
C 17.324507 10.061621 19.364917 5.135636 19.364917 0 
C 19.364917 -5.135636 17.324507 -10.061621 13.693064 -13.693064 
C 10.061621 -17.324507 5.135636 -19.364917 0 -19.364917 
C -5.135636 -19.364917 -10.061621 -17.324507 -13.693064 -13.693064 
C -17.324507 -10.061621 -19.364917 -5.135636 -19.364917 0 
C -19.364917 5.135636 -17.324507 10.061621 -13.693064 13.693064 
C -10.061621 17.324507 -5.135636 19.364917 0 19.364917 
z
" id="m98ff6f36c7" style="stroke:#008000;stroke-opacity:0.095652;"/>
    </defs>
    <g clip-path="url(#pda3dc8442b)">
     <use style="fill:#008000;fill-opacity:0.095652;stroke:#008000;stroke-opacity:0.095652;" x="250.860609" xlink:href="#m98ff6f36c7" y="183.352962"/>
    </g>
   </g>
   <g id="PathCollection_27">
    <defs>
     <path d="M 0 19.364917 
C 5.135636 19.364917 10.061621 17.324507 13.693064 13.693064 
C 17.324507 10.061621 19.364917 5.135636 19.364917 0 
C 19.364917 -5.135636 17.324507 -10.061621 13.693064 -13.693064 
C 10.061621 -17.324507 5.135636 -19.364917 0 -19.364917 
C -5.135636 -19.364917 -10.061621 -17.324507 -13.693064 -13.693064 
C -17.324507 -10.061621 -19.364917 -5.135636 -19.364917 0 
C -19.364917 5.135636 -17.324507 10.061621 -13.693064 13.693064 
C -10.061621 17.324507 -5.135636 19.364917 0 19.364917 
z
" id="mc5b5ada551" style="stroke:#0000ff;stroke-opacity:0.095652;"/>
    </defs>
    <g clip-path="url(#pda3dc8442b)">
     <use style="fill:#0000ff;fill-opacity:0.095652;stroke:#0000ff;stroke-opacity:0.095652;" x="183.915094" xlink:href="#mc5b5ada551" y="220.467151"/>
    </g>
   </g>
   <g id="PathCollection_28">
    <defs>
     <path d="M 0 19.364917 
C 5.135636 19.364917 10.061621 17.324507 13.693064 13.693064 
C 17.324507 10.061621 19.364917 5.135636 19.364917 0 
C 19.364917 -5.135636 17.324507 -10.061621 13.693064 -13.693064 
C 10.061621 -17.324507 5.135636 -19.364917 0 -19.364917 
C -5.135636 -19.364917 -10.061621 -17.324507 -13.693064 -13.693064 
C -17.324507 -10.061621 -19.364917 -5.135636 -19.364917 0 
C -19.364917 5.135636 -17.324507 10.061621 -13.693064 13.693064 
C -10.061621 17.324507 -5.135636 19.364917 0 19.364917 
z
" id="mf843f8918e" style="stroke:#ff0000;stroke-opacity:0.091304;"/>
    </defs>
    <g clip-path="url(#pda3dc8442b)">
     <use style="fill:#ff0000;fill-opacity:0.091304;stroke:#ff0000;stroke-opacity:0.091304;" x="178.471524" xlink:href="#mf843f8918e" y="117.584255"/>
    </g>
   </g>
   <g id="PathCollection_29">
    <defs>
     <path d="M 0 19.364917 
C 5.135636 19.364917 10.061621 17.324507 13.693064 13.693064 
C 17.324507 10.061621 19.364917 5.135636 19.364917 0 
C 19.364917 -5.135636 17.324507 -10.061621 13.693064 -13.693064 
C 10.061621 -17.324507 5.135636 -19.364917 0 -19.364917 
C -5.135636 -19.364917 -10.061621 -17.324507 -13.693064 -13.693064 
C -17.324507 -10.061621 -19.364917 -5.135636 -19.364917 0 
C -19.364917 5.135636 -17.324507 10.061621 -13.693064 13.693064 
C -10.061621 17.324507 -5.135636 19.364917 0 19.364917 
z
" id="m7d745cbc25" style="stroke:#008000;stroke-opacity:0.091304;"/>
    </defs>
    <g clip-path="url(#pda3dc8442b)">
     <use style="fill:#008000;fill-opacity:0.091304;stroke:#008000;stroke-opacity:0.091304;" x="241.438036" xlink:href="#m7d745cbc25" y="186.563119"/>
    </g>
   </g>
   <g id="PathCollection_30">
    <defs>
     <path d="M 0 19.364917 
C 5.135636 19.364917 10.061621 17.324507 13.693064 13.693064 
C 17.324507 10.061621 19.364917 5.135636 19.364917 0 
C 19.364917 -5.135636 17.324507 -10.061621 13.693064 -13.693064 
C 10.061621 -17.324507 5.135636 -19.364917 0 -19.364917 
C -5.135636 -19.364917 -10.061621 -17.324507 -13.693064 -13.693064 
C -17.324507 -10.061621 -19.364917 -5.135636 -19.364917 0 
C -19.364917 5.135636 -17.324507 10.061621 -13.693064 13.693064 
C -10.061621 17.324507 -5.135636 19.364917 0 19.364917 
z
" id="m24aa5a5cbc" style="stroke:#0000ff;stroke-opacity:0.091304;"/>
    </defs>
    <g clip-path="url(#pda3dc8442b)">
     <use style="fill:#0000ff;fill-opacity:0.091304;stroke:#0000ff;stroke-opacity:0.091304;" x="185.540611" xlink:href="#m24aa5a5cbc" y="218.147392"/>
    </g>
   </g>
   <g id="matplotlib.axis_1"/>
   <g id="matplotlib.axis_2"/>
   <g id="patch_3">
    <path d="M 112.68 252 
L 112.68 34.56 
" style="fill:none;stroke:#000000;stroke-linecap:square;stroke-linejoin:miter;stroke-width:0.8;"/>
   </g>
   <g id="patch_4">
    <path d="M 330.12 252 
L 330.12 34.56 
" style="fill:none;stroke:#000000;stroke-linecap:square;stroke-linejoin:miter;stroke-width:0.8;"/>
   </g>
   <g id="patch_5">
    <path d="M 112.68 252 
L 330.12 252 
" style="fill:none;stroke:#000000;stroke-linecap:square;stroke-linejoin:miter;stroke-width:0.8;"/>
   </g>
   <g id="patch_6">
    <path d="M 112.68 34.56 
L 330.12 34.56 
" style="fill:none;stroke:#000000;stroke-linecap:square;stroke-linejoin:miter;stroke-width:0.8;"/>
   </g>
  </g>
 </g>
 <defs>
  <clipPath id="pda3dc8442b">
   <rect height="217.44" width="217.44" x="112.68" y="34.56"/>
  </clipPath>
 </defs>
</svg>
